<svg width="15" height="13" viewBox="0 0 15 13" fill="none" xmlns="http://www.w3.org/2000/svg">
<path fill-rule="evenodd" clip-rule="evenodd" d="M0.0214844 1.62987C0.0214844 1.43174 0.105658 1.24172 0.255482 1.10162C0.405305 0.961523 0.608517 0.882812 0.820401 0.882812H14.1357C14.3475 0.882812 14.5508 0.961523 14.7006 1.10162C14.8504 1.24172 14.9346 1.43174 14.9346 1.62987C14.9346 1.828 14.8504 2.01803 14.7006 2.15813C14.5508 2.29822 14.3475 2.37693 14.1357 2.37693H0.820401C0.608517 2.37693 0.405305 2.29822 0.255482 2.15813C0.105658 2.01803 0.0214844 1.828 0.0214844 1.62987ZM0.0214844 6.61028C0.0214844 6.41215 0.105658 6.22213 0.255482 6.08203C0.405305 5.94193 0.608517 5.86322 0.820401 5.86322H14.1357C14.3475 5.86322 14.5508 5.94193 14.7006 6.08203C14.8504 6.22213 14.9346 6.41215 14.9346 6.61028C14.9346 6.80841 14.8504 6.99843 14.7006 7.13853C14.5508 7.27863 14.3475 7.35734 14.1357 7.35734H0.820401C0.608517 7.35734 0.405305 7.27863 0.255482 7.13853C0.105658 6.99843 0.0214844 6.80841 0.0214844 6.61028ZM0.820401 10.8436C0.608517 10.8436 0.405305 10.9223 0.255482 11.0625C0.105658 11.2025 0.0214844 11.3926 0.0214844 11.5907C0.0214844 11.7888 0.105658 11.9789 0.255482 12.1189C0.405305 12.2591 0.608517 12.3377 0.820401 12.3377H14.1357C14.3475 12.3377 14.5508 12.2591 14.7006 12.1189C14.8504 11.9789 14.9346 11.7888 14.9346 11.5907C14.9346 11.3926 14.8504 11.2025 14.7006 11.0625C14.5508 10.9223 14.3475 10.8436 14.1357 10.8436H0.820401Z" fill="#1F1F1F"/>
</svg>
